<svg width="528" height="131" viewBox="0 0 528 131" fill="none" xmlns="http://www.w3.org/2000/svg">
<path d="M306 54.2C306 33.6549 322.648 17 343.181 17H490.769C511.302 17 527.95 33.6549 527.95 54.2V77.45C527.95 97.9951 511.302 114.65 490.769 114.65H306V54.2Z" fill="#0CBE5E"/>
<path d="M336.656 83.5312C336.656 81.5729 337.188 80.1979 338.25 79.4062C339.333 78.6146 340.635 78.2188 342.156 78.2188C343.635 78.2188 344.906 78.6146 345.969 79.4062C347.052 80.1979 347.594 81.5729 347.594 83.5312C347.594 85.4062 347.052 86.7604 345.969 87.5938C344.906 88.4271 343.635 88.8438 342.156 88.8438C340.635 88.8438 339.333 88.4271 338.25 87.5938C337.188 86.7604 336.656 85.4062 336.656 83.5312ZM372.358 88.625C368.899 88.625 365.951 88 363.514 86.75C361.076 85.4792 359.222 83.5208 357.951 80.875C356.68 78.2292 356.045 74.8438 356.045 70.7188C356.045 66.4479 356.764 62.9688 358.201 60.2812C359.66 57.5729 361.67 55.5833 364.233 54.3125C366.816 53.0417 369.805 52.4062 373.201 52.4062C375.618 52.4062 377.701 52.6458 379.451 53.125C381.222 53.5833 382.764 54.1354 384.076 54.7812L381.264 62.1562C379.764 61.5521 378.368 61.0625 377.076 60.6875C375.785 60.2917 374.493 60.0938 373.201 60.0938C371.535 60.0938 370.149 60.4896 369.045 61.2812C367.941 62.0521 367.118 63.2188 366.576 64.7812C366.035 66.3438 365.764 68.3021 365.764 70.6562C365.764 72.9688 366.055 74.8854 366.639 76.4062C367.222 77.9271 368.066 79.0625 369.17 79.8125C370.274 80.5417 371.618 80.9062 373.201 80.9062C375.18 80.9062 376.941 80.6458 378.483 80.125C380.024 79.5833 381.524 78.8333 382.983 77.875V86.0312C381.524 86.9479 379.993 87.6042 378.389 88C376.805 88.4167 374.795 88.625 372.358 88.625ZM424.778 70.4688C424.778 73.3854 424.382 75.9688 423.59 78.2188C422.819 80.4688 421.684 82.375 420.184 83.9375C418.705 85.4792 416.913 86.6458 414.809 87.4375C412.725 88.2292 410.371 88.625 407.746 88.625C405.288 88.625 403.028 88.2292 400.965 87.4375C398.923 86.6458 397.142 85.4792 395.621 83.9375C394.121 82.375 392.955 80.4688 392.121 78.2188C391.309 75.9688 390.903 73.3854 390.903 70.4688C390.903 66.5938 391.59 63.3125 392.965 60.625C394.34 57.9375 396.298 55.8958 398.84 54.5C401.382 53.1042 404.413 52.4062 407.934 52.4062C411.205 52.4062 414.1 53.1042 416.621 54.5C419.163 55.8958 421.153 57.9375 422.59 60.625C424.048 63.3125 424.778 66.5938 424.778 70.4688ZM400.621 70.4688C400.621 72.7604 400.871 74.6875 401.371 76.25C401.871 77.8125 402.653 78.9896 403.715 79.7812C404.778 80.5729 406.163 80.9688 407.871 80.9688C409.559 80.9688 410.923 80.5729 411.965 79.7812C413.028 78.9896 413.798 77.8125 414.278 76.25C414.778 74.6875 415.028 72.7604 415.028 70.4688C415.028 68.1562 414.778 66.2396 414.278 64.7188C413.798 63.1771 413.028 62.0208 411.965 61.25C410.903 60.4792 409.517 60.0938 407.809 60.0938C405.288 60.0938 403.455 60.9583 402.309 62.6875C401.184 64.4167 400.621 67.0104 400.621 70.4688ZM475.604 52.4062C479.562 52.4062 482.552 53.4271 484.573 55.4688C486.614 57.4896 487.635 60.7396 487.635 65.2188V88H478.073V67.5938C478.073 65.0938 477.645 63.2083 476.791 61.9375C475.937 60.6667 474.614 60.0312 472.823 60.0312C470.302 60.0312 468.51 60.9375 467.448 62.75C466.385 64.5417 465.854 67.1146 465.854 70.4688V88H456.323V67.5938C456.323 65.9271 456.135 64.5312 455.76 63.4062C455.385 62.2812 454.812 61.4375 454.041 60.875C453.27 60.3125 452.281 60.0312 451.073 60.0312C449.302 60.0312 447.906 60.4792 446.885 61.375C445.885 62.25 445.166 63.5521 444.729 65.2812C444.312 66.9896 444.104 69.0833 444.104 71.5625V88H434.573V53.0625H441.854L443.135 57.5312H443.666C444.375 56.3229 445.26 55.3438 446.323 54.5938C447.406 53.8438 448.593 53.2917 449.885 52.9375C451.177 52.5833 452.489 52.4062 453.823 52.4062C456.385 52.4062 458.552 52.8229 460.323 53.6562C462.114 54.4896 463.489 55.7812 464.448 57.5312H465.291C466.333 55.7396 467.802 54.4375 469.698 53.625C471.614 52.8125 473.583 52.4062 475.604 52.4062Z" fill="white"/>
<path d="M50.5781 103L45.6094 86.6875H20.625L15.6562 103H0L24.1875 34.1875H41.9531L66.2344 103H50.5781ZM42.1406 74.5L37.1719 58.5625C36.8594 57.5 36.4375 56.1406 35.9062 54.4844C35.4062 52.7969 34.8906 51.0938 34.3594 49.375C33.8594 47.625 33.4531 46.1094 33.1406 44.8281C32.8281 46.1094 32.3906 47.7031 31.8281 49.6094C31.2969 51.4844 30.7812 53.2656 30.2812 54.9531C29.7812 56.6406 29.4219 57.8438 29.2031 58.5625L24.2812 74.5H42.1406ZM73.9463 103V34.4688H88.4775V103H73.9463ZM131.205 103H116.674V46.5625H98.0644V34.4688H149.814V46.5625H131.205V103ZM216.261 68.0781C216.261 75.7969 214.776 82.25 211.807 87.4375C208.87 92.5938 204.604 96.4844 199.011 99.1094C193.417 101.703 186.682 103 178.807 103H159.401V34.4688H180.917C188.104 34.4688 194.339 35.75 199.62 38.3125C204.901 40.8438 208.995 44.6094 211.901 49.6094C214.807 54.5781 216.261 60.7344 216.261 68.0781ZM201.167 68.4531C201.167 63.3906 200.417 59.2344 198.917 55.9844C197.448 52.7031 195.261 50.2812 192.354 48.7188C189.479 47.1562 185.917 46.375 181.667 46.375H173.932V91H180.167C187.261 91 192.526 89.1094 195.964 85.3281C199.432 81.5469 201.167 75.9219 201.167 68.4531ZM284.629 103H268.129L250.176 74.125L244.035 78.5312V103H229.504V34.4688H244.035V65.8281C245.004 64.4844 245.957 63.1406 246.894 61.7969C247.832 60.4531 248.785 59.1094 249.754 57.7656L268.316 34.4688H284.441L260.535 64.7969L284.629 103Z" fill="#635BFF"/>
</svg>
